{"title":"Die Wahre Geschichte von Tschernobyl (DEUTSCH)","uid":6919623,"size":641954352,"categoryP":"video","categoryS":"movies","magnet":"?xt=urn:btih:4d018587281a4dcc3a8393462055011f125961f5&amp;dn=Die+Wahre+Geschichte+von+Tschernobyl+%28DEUTSCH%29&amp;tr=udp%3A%2F%2Ftracker.openbittorrent.com%3A80&amp;tr=udp%3A%2F%2Fopen.demonii.com%3A1337&amp;tr=udp%3A%2F%2Ftracker.coppersurfer.tk%3A6969&amp;tr=udp%3A%2F%2Fexodus.desync.com%3A6969","seeders":0,"leechers":1,"uploader":"khunrah","files":1,"time":1325118733,"description":"Von Discovery Channel (Deutsch). QualitÃƒÂ¤t: maessig, aber interessante Dokumation\n\n\nGeneral\nComplete name                    : Die Wahre Geschichte von Tschernobyl.avi\nFormat                           : AVI\nFormat/Info                      : Audio Video Interleave\nFile size                        : 612 MiB\nDuration                         : 1h 32mn\nOverall bit rate                 : 921 Kbps\n\nVideo\nID                               : 0\nFormat                           : MPEG-4 Visual\nCodec ID                         : MP42\nCodec ID/Info                    : Microsoft MPEG-4 v2 (pre-standard)\nCodec ID/Hint                    : Microsoft\nDuration                         : 1h 32mn\nBit rate                         : 780 Kbps\nWidth                            : 384 pixels\nHeight                           : 288 pixels\nDisplay aspect ratio             : 4:3\nFrame rate                       : 30.000 fps\nCompression mode                 : Lossy\nBits/(Pixel*Frame)               : 0.235\nStream size                      : 518 MiB (85%)\n\nAudio\nID                               : 1\nFormat                           : MPEG Audio\nFormat version                   : Version 1\nFormat profile                   : Layer 3\nMode                             : Joint stereo\nMode extension                   : MS Stereo\nCodec ID                         : 55\nCodec ID/Hint                    : MP3\nDuration                         : 1h 32mn\nBit rate mode                    : Constant\nBit rate                         : 128 Kbps\nChannel(s)                       : 2 channels\nSampling rate                    : 44.1 KHz\nCompression mode                 : Lossy\nStream size                      : 85.1 MiB (14%)\nAlignment                        : Aligned on interleaves\nInterleave, duration             : 26 ms (0.78 video frame)\nWriting library                  : LAME3.97\n\n","torrent":{"xt":"urn:btih:4d018587281a4dcc3a8393462055011f125961f5","amp;dn":"Die+Wahre+Geschichte+von+Tschernobyl+%28DEUTSCH%29","amp;tr":["udp%3A%2F%2Ftracker.openbittorrent.com%3A80","udp%3A%2F%2Fopen.demonii.com%3A1337","udp%3A%2F%2Ftracker.coppersurfer.tk%3A6969","udp%3A%2F%2Fexodus.desync.com%3A6969"],"infoHash":"4d018587281a4dcc3a8393462055011f125961f5","infoHashBuffer":{"type":"Buffer","data":[77,1,133,135,40,26,77,204,58,131,147,70,32,85,1,31,18,89,97,245]},"announce":[],"urlList":[]}}